<svg width="24" height="24" viewBox="0 0 24 24" fill="none" xmlns="http://www.w3.org/2000/svg">
<path fill-rule="evenodd" clip-rule="evenodd" d="M23.375 6.16667C23.375 4.69667 22.7917 3.28733 21.7522 2.24783C20.7127 1.20833 19.3033 0.625 17.8333 0.625H6.16667C4.69667 0.625 3.28733 1.20833 2.24783 2.24783C1.20833 3.28733 0.625 4.69667 0.625 6.16667V17.8333C0.625 19.3033 1.20833 20.7127 2.24783 21.7522C3.28733 22.7917 4.69667 23.375 6.16667 23.375H17.8333C19.3033 23.375 20.7127 22.7917 21.7522 21.7522C22.7917 20.7127 23.375 19.3033 23.375 17.8333V6.16667ZM21.625 6.16667V17.8333C21.625 18.839 21.226 19.8038 20.5143 20.5143C19.8038 21.226 18.839 21.625 17.8333 21.625H6.16667C5.161 21.625 4.19617 21.226 3.48567 20.5143C2.774 19.8038 2.375 18.839 2.375 17.8333V6.16667C2.375 5.161 2.774 4.19617 3.48567 3.48567C4.19617 2.774 5.161 2.375 6.16667 2.375H17.8333C18.839 2.375 19.8038 2.774 20.5143 3.48567C21.226 4.19617 21.625 5.161 21.625 6.16667Z" fill="#8E9198"/>
<path fill-rule="evenodd" clip-rule="evenodd" d="M11.1341 11.1068V7.89844C11.1341 7.41544 11.5261 7.02344 12.0091 7.02344C12.4921 7.02344 12.8841 7.41544 12.8841 7.89844V11.1068H16.0924C16.5754 11.1068 16.9674 11.4988 16.9674 11.9818C16.9674 12.4648 16.5754 12.8568 16.0924 12.8568H12.8841V16.0651C12.8841 16.5481 12.4921 16.9401 12.0091 16.9401C11.5261 16.9401 11.1341 16.5481 11.1341 16.0651V12.8568H7.92578C7.44278 12.8568 7.05078 12.4648 7.05078 11.9818C7.05078 11.4988 7.44278 11.1068 7.92578 11.1068H11.1341Z" fill="#8E9198"/>
</svg>
