<svg width="24" height="24" viewBox="0 0 24 24" fill="none" xmlns="http://www.w3.org/2000/svg">
<path fill-rule="evenodd" clip-rule="evenodd" d="M6.16667 0.625C4.69667 0.625 3.28733 1.20833 2.24783 2.24783C1.20833 3.28733 0.625 4.69667 0.625 6.16667V17.8333C0.625 19.3033 1.20833 20.7127 2.24783 21.7522C3.28733 22.7917 4.69667 23.375 6.16667 23.375H17.8333C19.3033 23.375 20.7127 22.7917 21.7522 21.7522C22.7917 20.7127 23.375 19.3033 23.375 17.8333V6.16667C23.375 4.69667 22.7917 3.28733 21.7522 2.24783C20.7127 1.20833 19.3033 0.625 17.8333 0.625H6.16667ZM7.04167 2.375H6.16667C5.161 2.375 4.19617 2.774 3.48567 3.48567C2.774 4.19617 2.375 5.161 2.375 6.16667V17.8333C2.375 18.839 2.774 19.8038 3.48567 20.5143C4.19617 21.226 5.161 21.625 6.16667 21.625H17.8333C18.839 21.625 19.8038 21.226 20.5143 20.5143C21.226 19.8038 21.625 18.839 21.625 17.8333V6.16667C21.625 5.161 21.226 4.19617 20.5143 3.48567C19.8038 2.774 18.839 2.375 17.8333 2.375H16.9583V10.25C16.9583 10.5615 16.7927 10.8497 16.522 11.0072C16.2525 11.1635 15.92 11.1647 15.6493 11.0095L12 8.92467L8.35067 11.0095C8.08 11.1647 7.7475 11.1635 7.478 11.0072C7.20733 10.8497 7.04167 10.5615 7.04167 10.25V2.375ZM8.79167 2.375V8.74267L11.566 7.15717C11.8343 7.00317 12.1657 7.00317 12.434 7.15717L15.2083 8.74267V2.375H8.79167Z" fill="#8E9198"/>
<path fill-rule="evenodd" clip-rule="evenodd" d="M6.16797 15.2266H7.33464C7.81764 15.2266 8.20964 14.8346 8.20964 14.3516C8.20964 13.8686 7.81764 13.4766 7.33464 13.4766H6.16797C5.68497 13.4766 5.29297 13.8686 5.29297 14.3516C5.29297 14.8346 5.68497 15.2266 6.16797 15.2266Z" fill="#8E9198"/>
<path fill-rule="evenodd" clip-rule="evenodd" d="M6.16797 18.7266H12.0013C12.4843 18.7266 12.8763 18.3346 12.8763 17.8516C12.8763 17.3686 12.4843 16.9766 12.0013 16.9766H6.16797C5.68497 16.9766 5.29297 17.3686 5.29297 17.8516C5.29297 18.3346 5.68497 18.7266 6.16797 18.7266Z" fill="#8E9198"/>
</svg>
