<svg width="18" height="18" viewBox="0 0 18 18" fill="none" xmlns="http://www.w3.org/2000/svg">
<path fill-rule="evenodd" clip-rule="evenodd" d="M9.05423 0.187353C8.06331 0.0370198 7.05681 0.326687 6.29781 0.979353C5.53881 1.63202 5.10156 2.58444 5.10156 3.58544C5.10156 6.68835 5.10156 11.3744 5.10156 14.5094C5.10156 15.5287 5.55348 16.4958 6.33631 17.1484C7.11915 17.802 8.15131 18.0734 9.15415 17.8909C10.6556 17.6187 12.4294 17.296 13.9016 17.0284C15.9714 16.6516 17.4766 14.8485 17.4766 12.7448C17.4766 10.5026 17.4766 7.47027 17.4766 5.20702C17.4766 3.05469 15.9036 1.22502 13.7751 0.902353C12.2974 0.678686 10.5365 0.411937 9.05423 0.187353ZM8.84798 1.54677C10.3302 1.77135 12.0921 2.0381 13.5688 2.26177C15.0254 2.48269 16.1016 3.73394 16.1016 5.20702C16.1016 7.47027 16.1016 10.5026 16.1016 12.7448C16.1016 14.1839 15.0721 15.4178 13.655 15.6754C12.1837 15.943 10.41 16.2657 8.90756 16.5389C8.30623 16.6479 7.68748 16.4848 7.21723 16.0924C6.7479 15.701 6.47656 15.1208 6.47656 14.5094C6.47656 11.3744 6.47656 6.68835 6.47656 3.58544C6.47656 2.98502 6.73873 2.41394 7.19431 2.0216C7.6499 1.63019 8.25398 1.45694 8.84798 1.54677Z" fill="white"/>
<path d="M8.54167 10.0169C9.04793 10.0169 9.45833 9.60652 9.45833 9.10026C9.45833 8.594 9.04793 8.18359 8.54167 8.18359C8.03541 8.18359 7.625 8.594 7.625 9.10026C7.625 9.60652 8.03541 10.0169 8.54167 10.0169Z" fill="white"/>
<path fill-rule="evenodd" clip-rule="evenodd" d="M3.95611 16.6484C2.05861 16.6475 0.519531 15.1084 0.519531 13.2109C0.519531 10.8139 0.519531 7.35527 0.519531 4.9591C0.519531 4.04794 0.881615 3.17344 1.52603 2.52902C2.17045 1.8846 3.04403 1.52344 3.9552 1.52344H3.95703C4.33653 1.52344 4.64453 1.83144 4.64453 2.21094C4.64453 2.58952 4.33653 2.89752 3.95703 2.89844H3.9552C3.40886 2.89844 2.88453 3.11477 2.4977 3.5016C2.11178 3.88844 1.89453 4.41185 1.89453 4.9591C1.89453 7.35527 1.89453 10.8139 1.89453 13.2109C1.89453 14.3494 2.81761 15.2734 3.95703 15.2734C4.33653 15.2734 4.64453 15.5814 4.64453 15.9609C4.64453 16.3395 4.33653 16.6475 3.95703 16.6484H3.95611Z" fill="white"/>
</svg>
