<svg width="18" height="18" viewBox="0 0 18 18" fill="none" xmlns="http://www.w3.org/2000/svg">
<path fill-rule="evenodd" clip-rule="evenodd" d="M8.99479 6.03516C7.35029 6.03516 6.01562 7.36982 6.01562 9.01432C6.01562 10.6588 7.35029 11.9935 8.99479 11.9935C10.6393 11.9935 11.974 10.6588 11.974 9.01432C11.974 7.36982 10.6393 6.03516 8.99479 6.03516ZM8.99479 7.41016C9.88029 7.41016 10.599 8.12882 10.599 9.01432C10.599 9.89982 9.88029 10.6185 8.99479 10.6185C8.10929 10.6185 7.39063 9.89982 7.39063 9.01432C7.39063 8.12882 8.10929 7.41016 8.99479 7.41016Z" fill="white"/>
<path fill-rule="evenodd" clip-rule="evenodd" d="M6.01498 2.64933C6.01498 2.895 5.8839 3.12142 5.67123 3.24425C5.45857 3.36708 5.1964 3.36708 4.98373 3.24425C4.82882 3.15533 4.67665 3.06733 4.52998 2.98208C4.05607 2.70892 3.49323 2.63467 2.96523 2.77675C2.43632 2.91792 1.98623 3.2635 1.71215 3.73742C1.42248 4.23975 1.08607 4.82275 0.795482 5.32508C0.522315 5.799 0.448065 6.36183 0.590149 6.88983C0.731315 7.41875 1.0769 7.86883 1.55082 8.14292C1.69748 8.22725 1.84965 8.31525 2.00457 8.40417C2.21723 8.527 2.34832 8.75433 2.34832 9C2.34832 9.24567 2.21723 9.473 2.00457 9.59583C1.84965 9.68475 1.69748 9.77275 1.55082 9.85708C1.0769 10.1312 0.731315 10.5813 0.590149 11.1102C0.448065 11.6382 0.522315 12.201 0.795482 12.6749C1.08607 13.1773 1.42248 13.7602 1.71215 14.2626C1.98623 14.7365 2.43632 15.0821 2.96523 15.2233C3.49323 15.3653 4.05607 15.2911 4.52998 15.0179C4.67665 14.9327 4.82882 14.8447 4.98373 14.7557C5.1964 14.6329 5.45857 14.6329 5.67123 14.7557C5.8839 14.8786 6.01498 15.105 6.01498 15.3507C6.01498 15.5294 6.01498 15.7063 6.01498 15.875C6.01498 16.4223 6.23223 16.9466 6.61907 17.3334C7.0059 17.7202 7.53023 17.9375 8.07748 17.9375H9.91082C10.4581 17.9375 10.9824 17.7202 11.3692 17.3334C11.7561 16.9466 11.9733 16.4223 11.9733 15.875V15.3507C11.9733 15.105 12.1044 14.8786 12.3171 14.7557C12.5297 14.6329 12.7919 14.6329 13.0046 14.7557C13.1595 14.8447 13.3126 14.9327 13.4583 15.0179C13.9322 15.2911 14.4951 15.3653 15.024 15.2233C15.552 15.0821 16.003 14.7365 16.2761 14.2626C16.5658 13.7602 16.9032 13.1773 17.1928 12.6749C17.466 12.201 17.5402 11.6382 17.3991 11.1102C17.257 10.5813 16.9114 10.1312 16.4375 9.85708C16.2917 9.77275 16.1387 9.68475 15.9837 9.59583C15.7711 9.473 15.64 9.24567 15.64 9C15.64 8.75433 15.7711 8.527 15.9837 8.40417C16.1387 8.31525 16.2917 8.22725 16.4375 8.14292C16.9114 7.86883 17.257 7.41875 17.3991 6.88983C17.5402 6.36183 17.466 5.799 17.1928 5.32508C16.9032 4.82275 16.5658 4.23975 16.2761 3.73742C16.003 3.2635 15.552 2.91792 15.024 2.77675C14.4951 2.63467 13.9322 2.70892 13.4583 2.98208C13.3126 3.06733 13.1595 3.15533 13.0046 3.24425C12.7919 3.36708 12.5297 3.36708 12.3171 3.24425C12.1044 3.12142 11.9733 2.895 11.9733 2.64933C11.9733 2.47058 11.9733 2.29367 11.9733 2.125C11.9733 1.57775 11.7561 1.05342 11.3692 0.666583C10.9824 0.27975 10.4581 0.0625 9.91082 0.0625H8.07748C7.53023 0.0625 7.0059 0.27975 6.61907 0.666583C6.23223 1.05342 6.01498 1.57775 6.01498 2.125V2.64933ZM7.38998 2.64933V2.125C7.38998 1.94258 7.4624 1.7675 7.59165 1.63917C7.7209 1.50992 7.89507 1.4375 8.07748 1.4375H9.91082C10.0932 1.4375 10.2683 1.50992 10.3976 1.63917C10.5259 1.7675 10.5983 1.94258 10.5983 2.125V2.64933C10.5983 3.38633 10.9916 4.0665 11.6296 4.435C12.2676 4.8035 13.0541 4.8035 13.6921 4.435C13.847 4.34608 14.0001 4.25808 14.1458 4.17283C14.3044 4.08208 14.4914 4.05733 14.6674 4.105C14.8443 4.15175 14.9937 4.26725 15.0854 4.42492C15.3751 4.92725 15.7124 5.51025 16.0021 6.01258C16.0928 6.17025 16.1176 6.35817 16.0708 6.53417C16.0232 6.71017 15.9086 6.8605 15.75 6.95217C15.6042 7.0365 15.4512 7.1245 15.2962 7.21342C14.6582 7.58192 14.265 8.263 14.265 9C14.265 9.737 14.6582 10.4181 15.2962 10.7866C15.4512 10.8755 15.6042 10.9635 15.75 11.0478C15.9086 11.1395 16.0232 11.2898 16.0708 11.4658C16.1176 11.6418 16.0928 11.8298 16.0021 11.9874C15.7124 12.4897 15.3751 13.0727 15.0854 13.5751C14.9937 13.7327 14.8443 13.8483 14.6674 13.895C14.4914 13.9427 14.3044 13.9179 14.1458 13.8272C14.0001 13.7419 13.847 13.6539 13.6921 13.565C13.0541 13.1965 12.2676 13.1965 11.6296 13.565C10.9916 13.9335 10.5983 14.6137 10.5983 15.3507C10.5983 15.5294 10.5983 15.7063 10.5983 15.875C10.5983 16.0574 10.5259 16.2325 10.3976 16.3608C10.2683 16.4901 10.0932 16.5625 9.91082 16.5625H8.07748C7.89507 16.5625 7.7209 16.4901 7.59165 16.3608C7.4624 16.2325 7.38998 16.0574 7.38998 15.875V15.3507C7.38998 14.6137 6.99673 13.9335 6.35873 13.565C5.72073 13.1965 4.93423 13.1965 4.29623 13.565C4.14132 13.6539 3.98915 13.7419 3.84248 13.8272C3.68482 13.9179 3.4969 13.9427 3.3209 13.895C3.1449 13.8483 2.99457 13.7327 2.9029 13.5751C2.61323 13.0727 2.27682 12.4897 1.98623 11.9874C1.89548 11.8298 1.87073 11.6418 1.9184 11.4658C1.96515 11.2898 2.08065 11.1395 2.23832 11.0478C2.38498 10.9635 2.53715 10.8755 2.69207 10.7866C3.33007 10.4181 3.72332 9.737 3.72332 9C3.72332 8.263 3.33007 7.58192 2.69207 7.21342C2.53715 7.1245 2.38498 7.0365 2.23832 6.95217C2.08065 6.8605 1.96515 6.71017 1.9184 6.53417C1.87073 6.35817 1.89548 6.17025 1.98623 6.01258C2.27682 5.51025 2.61323 4.92725 2.9029 4.42492C2.99457 4.26725 3.1449 4.15175 3.3209 4.105C3.4969 4.05733 3.68482 4.08208 3.84248 4.17283C3.98915 4.25808 4.14132 4.34608 4.29623 4.435C4.93423 4.8035 5.72073 4.8035 6.35873 4.435C6.99673 4.0665 7.38998 3.38633 7.38998 2.64933Z" fill="white"/>
</svg>
