<svg width="18" height="18" viewBox="0 0 18 18" fill="none" xmlns="http://www.w3.org/2000/svg">
<path fill-rule="evenodd" clip-rule="evenodd" d="M17.9375 4.41667C17.9375 3.26167 17.4792 2.15433 16.6624 1.33758C15.8457 0.520833 14.7383 0.0625 13.5833 0.0625H4.41667C3.26167 0.0625 2.15433 0.520833 1.33758 1.33758C0.520833 2.15433 0.0625 3.26167 0.0625 4.41667V13.5833C0.0625 14.7383 0.520833 15.8457 1.33758 16.6624C2.15433 17.4792 3.26167 17.9375 4.41667 17.9375H13.5833C14.7383 17.9375 15.8457 17.4792 16.6624 16.6624C17.4792 15.8457 17.9375 14.7383 17.9375 13.5833V4.41667ZM16.5625 4.41667V13.5833C16.5625 14.3735 16.249 15.1316 15.6898 15.6898C15.1316 16.249 14.3735 16.5625 13.5833 16.5625H4.41667C3.6265 16.5625 2.86842 16.249 2.31017 15.6898C1.751 15.1316 1.4375 14.3735 1.4375 13.5833V4.41667C1.4375 3.6265 1.751 2.86842 2.31017 2.31017C2.86842 1.751 3.6265 1.4375 4.41667 1.4375H13.5833C14.3735 1.4375 15.1316 1.751 15.6898 2.31017C16.249 2.86842 16.5625 3.6265 16.5625 4.41667Z" fill="white"/>
<path fill-rule="evenodd" clip-rule="evenodd" d="M8.31771 8.29818V5.77734C8.31771 5.39784 8.62571 5.08984 9.00521 5.08984C9.38471 5.08984 9.69271 5.39784 9.69271 5.77734V8.29818H12.2135C12.593 8.29818 12.901 8.60618 12.901 8.98568C12.901 9.36518 12.593 9.67318 12.2135 9.67318H9.69271V12.194C9.69271 12.5735 9.38471 12.8815 9.00521 12.8815C8.62571 12.8815 8.31771 12.5735 8.31771 12.194V9.67318H5.79688C5.41738 9.67318 5.10938 9.36518 5.10938 8.98568C5.10938 8.60618 5.41738 8.29818 5.79688 8.29818H8.31771Z" fill="white"/>
</svg>
