<svg width="18" height="18" viewBox="0 0 18 18" fill="none" xmlns="http://www.w3.org/2000/svg">
<path fill-rule="evenodd" clip-rule="evenodd" d="M13.1668 17.929H4.8737C3.7187 17.929 2.61136 17.4707 1.79461 16.6539C0.977864 15.8372 0.519531 14.7299 0.519531 13.5749C0.519531 11.5298 0.519531 9.10244 0.519531 7.61744C0.519531 6.53577 1.0237 5.51644 1.88261 4.85919C3.36578 3.72527 6.0012 1.70952 7.4862 0.574688C8.37903 -0.108229 9.61836 -0.108229 10.5112 0.574688C11.998 1.71135 14.638 3.72985 16.1203 4.86377C16.9755 5.51827 17.4779 6.53394 17.4779 7.61102C17.4779 9.10611 17.4779 11.5609 17.4779 13.6179C17.4779 14.761 17.0241 15.8583 16.2156 16.6668C15.4071 17.4753 14.3099 17.929 13.1668 17.929ZM11.9779 16.554H13.1668C13.9459 16.554 14.6921 16.2451 15.243 15.6942C15.7939 15.1433 16.1029 14.3971 16.1029 13.6179C16.1029 11.5609 16.1029 9.10611 16.1029 7.61102C16.1029 6.96202 15.8004 6.34969 15.2852 5.95552C13.8029 4.82252 11.1629 2.8031 9.67611 1.66644C9.27645 1.36119 8.72095 1.36119 8.32128 1.66644C6.83628 2.80219 4.20086 4.81794 2.7177 5.95185C2.19886 6.34877 1.89453 6.96477 1.89453 7.61744C1.89453 9.10244 1.89453 11.5298 1.89453 13.5749C1.89453 14.365 2.20803 15.1231 2.7672 15.6814C3.32545 16.2405 4.08353 16.554 4.8737 16.554H6.01953V13.1165C6.01953 12.2301 6.7382 11.5124 7.6237 11.5124C8.42211 11.5124 9.57528 11.5124 10.3737 11.5124C11.2592 11.5124 11.9779 12.2301 11.9779 13.1165V16.554ZM10.6029 16.554V13.1165C10.6029 12.99 10.5002 12.8874 10.3737 12.8874C9.57528 12.8874 8.42211 12.8874 7.6237 12.8874C7.4972 12.8874 7.39453 12.99 7.39453 13.1165V16.554H10.6029Z" fill="#FDB576"/>
</svg>
